<svg xmlns="http://www.w3.org/2000/svg" viewBox="0 0 64 64">
  <defs>
    <linearGradient id="g" x1="0%" x2="100%" y1="0%" y2="100%">
      <stop offset="0%" stop-color="#25b7ff"/>
      <stop offset="100%" stop-color="#1084ff"/>
    </linearGradient>
  </defs>
  <rect width="64" height="64" rx="18" fill="#071521"/>
  <rect x="6" y="6" width="52" height="52" rx="16" fill="url(#g)" opacity="0.18"/>
  <path d="M22 18h11c8 0 13 4 13 10 0 4-2 7-6 8 5 1 8 5 8 10 0 7-6 12-15 12H22V18zm9 16c4 0 6-2 6-5s-2-5-6-5h-2v10h2zm1 18c5 0 8-2 8-6s-3-6-8-6h-3v12h3z" fill="#eef8ff"/>
</svg>
